<?xml version="1.0" standalone="no"?>
<!DOCTYPE svg PUBLIC "-//W3C//DTD SVG 20010904//EN"
 "http://www.w3.org/TR/2001/REC-SVG-20010904/DTD/svg10.dtd">
<svg version="1.0" xmlns="http://www.w3.org/2000/svg"
 width="500.000000pt" height="500.000000pt" viewBox="0 0 500.000000 500.000000"
 preserveAspectRatio="xMidYMid meet">

<g transform="translate(0.000000,500.000000) scale(0.100000,-0.100000)"
fill="#000000" stroke="none">
<path d="M1770 3218 c0 -34 0 -35 62 -46 106 -20 127 -59 128 -234 l0 -98 95
0 95 0 0 134 c0 74 4 146 10 160 l10 26 157 0 c245 0 349 -31 461 -135 32 -29
75 -83 96 -119 l39 -66 108 0 c60 0 109 4 109 9 0 23 -88 137 -152 196 -83 76
-208 143 -333 177 -74 20 -108 22 -482 26 l-403 4 0 -34z"/>
<path d="M1620 2711 c0 -5 10 -11 23 -13 22 -3 22 -6 25 -162 3 -165 -2 -186
-39 -186 -11 0 -19 -4 -19 -10 0 -16 209 -12 266 5 50 15 90 48 114 95 16 31
16 130 0 161 -25 48 -74 90 -124 104 -55 17 -246 21 -246 6z m258 -38 c42 -31
62 -81 62 -151 0 -85 -21 -129 -74 -153 -60 -27 -114 -21 -138 15 -10 15 -10
300 0 310 13 14 124 -2 150 -21z"/>
<path d="M2070 2710 c0 -5 7 -10 15 -10 27 0 35 -39 35 -175 0 -142 -8 -175
-40 -175 -11 0 -20 -4 -20 -10 0 -6 33 -10 80 -10 81 0 98 7 58 25 -22 10 -23
14 -23 170 0 156 1 160 23 170 39 17 24 25 -53 25 -43 0 -75 -4 -75 -10z"/>
<path d="M2366 2550 c-66 -165 -81 -193 -108 -203 -29 -10 3 -18 58 -14 45 2
53 5 37 11 -26 9 -29 30 -11 87 l11 39 72 0 72 0 18 -45 c19 -52 15 -75 -15
-75 -11 0 -20 -4 -20 -10 0 -6 33 -10 80 -10 81 0 98 7 58 25 -18 8 -40 52
-93 184 -39 96 -75 176 -81 178 -6 2 -41 -73 -78 -167z m92 28 c31 -88 31 -88
-33 -88 -30 0 -55 3 -55 7 0 14 53 143 59 143 3 0 16 -28 29 -62z"/>
<path d="M2670 2712 c0 -4 10 -12 23 -17 21 -10 22 -14 22 -170 0 -156 -1
-160 -22 -170 -42 -18 -24 -25 62 -25 50 0 85 4 85 10 0 6 -10 10 -23 10 -38
0 -47 19 -47 97 0 108 21 101 135 -50 49 -65 51 -67 98 -67 53 0 61 10 20 26
-16 6 -56 44 -90 86 l-62 75 38 16 c88 39 77 150 -17 177 -43 11 -222 14 -222
2z m215 -37 c56 -55 15 -135 -70 -135 l-45 0 0 80 0 80 45 0 c35 0 52 -6 70
-25z"/>
<path d="M3040 2711 c0 -5 8 -11 18 -13 10 -3 46 -52 80 -111 52 -88 62 -113
62 -152 0 -56 -14 -85 -40 -85 -11 0 -20 -4 -20 -10 0 -6 33 -10 80 -10 81 0
98 7 58 25 -20 9 -23 18 -26 75 -2 64 -1 67 59 164 34 54 70 101 80 103 38 10
17 23 -36 23 -30 0 -55 -4 -55 -10 0 -5 7 -10 15 -10 8 0 15 -7 15 -17 0 -16
-81 -163 -90 -163 -9 0 -90 147 -90 163 0 10 8 17 20 17 11 0 20 5 20 10 0 6
-32 10 -75 10 -41 0 -75 -4 -75 -9z"/>
<path d="M1958 2053 c-7 -151 -35 -184 -165 -199 l-63 -7 0 -34 0 -34 443 3
c416 4 447 6 522 26 118 32 234 94 314 168 59 55 131 147 131 167 0 4 -49 7
-109 7 l-109 0 -30 -53 c-62 -110 -178 -186 -325 -214 -148 -28 -289 -4 -354
59 -37 35 -49 67 -59 151 l-6 57 -93 0 -92 0 -5 -97z"/>
</g>
</svg>
