<?xml version="1.0" standalone="no"?>
<!DOCTYPE svg PUBLIC "-//W3C//DTD SVG 20010904//EN"
 "http://www.w3.org/TR/2001/REC-SVG-20010904/DTD/svg10.dtd">
<svg version="1.0" xmlns="http://www.w3.org/2000/svg"
  viewBox="0 0 500.000000 500.000000"
 preserveAspectRatio="xMidYMid meet">

<g transform="translate(0.000000,500.000000) scale(0.100000,-0.100000)"
fill="#000000" stroke="none">
<path d="M830 4252 l0 -78 98 -12 c142 -17 199 -36 248 -86 78 -78 93 -195 94
-723 l0 -333 225 0 225 0 0 529 c0 491 1 530 18 551 l17 21 405 -4 c484 -5
521 -10 735 -111 326 -155 573 -498 659 -917 l13 -64 277 -3 277 -2 -6 22
c-89 292 -164 442 -321 644 -217 279 -584 504 -968 594 -199 47 -250 50 -1148
50 l-848 0 0 -78z"/>
<path d="M720 2751 c0 -16 6 -21 28 -21 16 0 37 -6 48 -14 18 -14 19 -31 22
-330 l3 -316 -25 -25 c-17 -17 -36 -25 -61 -25 -28 0 -35 -4 -35 -20 0 -19 7
-20 213 -20 117 0 240 5 273 11 185 34 302 164 312 346 10 188 -89 341 -265
406 -51 19 -84 21 -285 25 -226 4 -228 4 -228 -17z m486 -58 c106 -56 164
-174 164 -332 0 -205 -88 -316 -259 -329 -81 -5 -132 9 -161 45 -19 25 -20 40
-20 335 l0 310 118 -4 c96 -3 125 -8 158 -25z"/>
<path d="M1620 2750 c0 -15 7 -20 24 -20 14 0 38 -11 53 -24 l28 -24 0 -307 0
-307 -28 -24 c-16 -14 -41 -24 -58 -24 -22 0 -29 -5 -29 -20 0 -19 7 -20 165
-20 158 0 165 1 165 20 0 15 -7 20 -29 20 -16 0 -39 9 -52 19 l-24 19 -3 284
c-2 155 0 298 3 316 8 41 37 72 70 72 18 0 25 5 25 20 0 19 -7 20 -155 20
-148 0 -155 -1 -155 -20z"/>
<path d="M2230 2434 c-73 -184 -142 -349 -154 -367 -12 -18 -35 -35 -54 -41
-21 -6 -32 -15 -32 -27 0 -17 10 -19 120 -19 113 0 120 1 120 20 0 15 -7 20
-24 20 -14 0 -32 8 -41 17 -21 21 -16 61 22 161 l28 73 140 -3 139 -3 33 -85
c17 -47 32 -95 32 -107 1 -31 -25 -53 -65 -53 -27 0 -34 -4 -34 -20 0 -19 7
-20 165 -20 158 0 165 1 165 20 0 14 -7 20 -23 20 -56 0 -78 42 -243 452 -103
257 -122 298 -140 298 -18 0 -38 -44 -154 -336z m185 41 c26 -71 50 -136 53
-142 3 -10 -23 -13 -113 -13 -107 0 -117 1 -111 18 44 120 112 279 117 274 3
-4 27 -65 54 -137z"/>
<path d="M2840 2751 c0 -17 6 -21 30 -21 17 0 39 -9 50 -20 19 -19 20 -33 20
-332 0 -172 -4 -318 -8 -324 -11 -18 -48 -34 -76 -34 -19 0 -26 -5 -26 -20 0
-19 7 -20 180 -20 173 0 180 1 180 20 0 17 -7 20 -45 20 -35 0 -52 6 -70 25
-24 23 -25 28 -25 171 l0 146 38 -7 c20 -4 45 -14 56 -23 10 -10 77 -92 148
-184 l131 -168 98 0 c92 0 99 1 99 20 0 11 -7 20 -15 20 -8 0 -33 7 -56 16
-32 13 -67 48 -165 165 -68 81 -124 153 -124 159 0 5 8 10 18 10 10 0 42 12
70 26 71 35 104 91 104 173 0 70 -20 111 -72 144 -68 46 -96 50 -322 55 -216
4 -218 4 -218 -17z m415 -45 c45 -19 69 -66 69 -136 1 -109 -53 -156 -193
-167 l-81 -6 0 162 0 161 85 0 c51 0 99 -6 120 -14z"/>
<path d="M3590 2750 c0 -14 7 -20 23 -20 37 0 76 -52 191 -247 l106 -182 0
-114 c0 -100 -3 -117 -21 -141 -15 -19 -30 -26 -55 -26 -27 0 -34 -4 -34 -20
0 -19 7 -20 165 -20 158 0 165 1 165 20 0 16 -7 20 -30 20 -19 0 -40 9 -55 25
-24 23 -25 30 -25 141 l0 116 110 184 c114 188 157 244 191 244 12 0 19 7 19
20 0 19 -7 20 -115 20 -108 0 -115 -1 -115 -20 0 -14 7 -20 24 -20 33 0 49
-23 41 -59 -5 -24 -101 -196 -162 -290 -15 -23 -15 -23 -70 70 -116 198 -137
241 -126 258 5 9 28 18 49 21 26 3 40 11 42 23 3 16 -10 17 -157 17 -154 0
-161 -1 -161 -20z"/>
<path d="M1266 1598 c-3 -18 -7 -69 -10 -114 -10 -152 -71 -252 -179 -292 -55
-21 -198 -42 -284 -42 l-53 0 0 -80 0 -80 943 0 c996 1 1026 2 1233 49 300 68
586 223 800 436 62 60 117 120 123 133 l12 22 -249 0 -250 0 -58 -66 c-150
-172 -358 -285 -624 -341 -66 -14 -131 -18 -295 -18 -189 0 -218 2 -290 23
-215 62 -318 169 -360 375 l-5 27 -225 0 -224 0 -5 -32z"/>
</g>
</svg>
